<svg width="27" height="19" viewBox="0 0 27 19" fill="none" xmlns="http://www.w3.org/2000/svg">
<path d="M9.50001 12.0333C10.8991 12.0333 12.0333 10.8991 12.0333 9.50001C12.0333 8.10089 10.8991 6.96667 9.50001 6.96667C8.10089 6.96667 6.96667 8.10089 6.96667 9.50001C6.96667 10.8991 8.10089 12.0333 9.50001 12.0333Z" fill="#FF0000"/>
<path d="M7.12498 1.58333L5.67623 3.16666H3.16665C2.29581 3.16666 1.58331 3.87916 1.58331 4.74999V14.25C1.58331 15.1208 2.29581 15.8333 3.16665 15.8333H15.8333C16.7041 15.8333 17.4166 15.1208 17.4166 14.25V4.74999C17.4166 3.87916 16.7041 3.16666 15.8333 3.16666H13.3237L11.875 1.58333H7.12498ZM9.49998 13.4583C7.31498 13.4583 5.54165 11.685 5.54165 9.5C5.54165 7.315 7.31498 5.54166 9.49998 5.54166C11.685 5.54166 13.4583 7.315 13.4583 9.5C13.4583 11.685 11.685 13.4583 9.49998 13.4583Z" fill="#FF0000"/>
<path d="M23.5333 12.3348C24.9325 12.3348 26.0667 11.1406 26.0667 9.66741C26.0667 8.19424 24.9325 7 23.5333 7C22.1342 7 21 8.19424 21 9.66741C21 11.1406 22.1342 12.3348 23.5333 12.3348Z" fill="#FF0000"/>
</svg>
